solid OpenSCAD_Model
  facet normal 1 0 0
    outer loop
      vertex 4 10 8
      vertex 4 4 8
      vertex 4 10 4
    endloop
  endfacet
  facet normal 1 0 0
    outer loop
      vertex 4 25 4
      vertex 4 36 8
      vertex 4 25 8
    endloop
  endfacet
  facet normal 1 0 0
    outer loop
      vertex 4 36 8
      vertex 4 25 4
      vertex 4 36 2
    endloop
  endfacet
  facet normal 1 0 0
    outer loop
      vertex 4 4 2
      vertex 4 25 4
      vertex 4 10 4
    endloop
  endfacet
  facet normal 1 0 0
    outer loop
      vertex 4 25 4
      vertex 4 4 2
      vertex 4 36 2
    endloop
  endfacet
  facet normal 1 0 0
    outer loop
      vertex 4 4 2
      vertex 4 10 4
      vertex 4 4 8
    endloop
  endfacet
  facet normal 0 0 1
    outer loop
      vertex 4 10 8
      vertex 2 10 8
      vertex 4 4 8
    endloop
  endfacet
  facet normal -0 0 1
    outer loop
      vertex 4 4 8
      vertex 106 2 8
      vertex 106 4 8
    endloop
  endfacet
  facet normal 0 0 1
    outer loop
      vertex 4 4 8
      vertex 2 2 8
      vertex 106 2 8
    endloop
  endfacet
  facet normal 0 0 1
    outer loop
      vertex 2 2 8
      vertex 4 4 8
      vertex 2 10 8
    endloop
  endfacet
  facet normal 0 0 1
    outer loop
      vertex 58 38 8
      vertex 56 36 8
      vertex 58 24 8
    endloop
  endfacet
  facet normal -0 0 1
    outer loop
      vertex 35 38 8
      vertex 56 36 8
      vertex 58 38 8
    endloop
  endfacet
  facet normal 0 0 1
    outer loop
      vertex 56 36 8
      vertex 35 38 8
      vertex 35 36 8
    endloop
  endfacet
  facet normal 0 0 1
    outer loop
      vertex 128 24 8
      vertex 126 22 8
      vertex 128 2 8
    endloop
  endfacet
  facet normal -0 0 1
    outer loop
      vertex 58 24 8
      vertex 126 22 8
      vertex 128 24 8
    endloop
  endfacet
  facet normal 0 0 1
    outer loop
      vertex 58 24 8
      vertex 56 22 8
      vertex 126 22 8
    endloop
  endfacet
  facet normal 0 0 1
    outer loop
      vertex 56 22 8
      vertex 58 24 8
      vertex 56 36 8
    endloop
  endfacet
  facet normal 0 0 1
    outer loop
      vertex 128 2 8
      vertex 126 22 8
      vertex 126 2 8
    endloop
  endfacet
  facet normal 0 0 1
    outer loop
      vertex 25 38 8
      vertex 4 36 8
      vertex 25 36 8
    endloop
  endfacet
  facet normal -0 0 1
    outer loop
      vertex 2 38 8
      vertex 4 36 8
      vertex 25 38 8
    endloop
  endfacet
  facet normal 0 0 1
    outer loop
      vertex 2 25 8
      vertex 4 36 8
      vertex 2 38 8
    endloop
  endfacet
  facet normal 0 0 1
    outer loop
      vertex 4 36 8
      vertex 2 25 8
      vertex 4 25 8
    endloop
  endfacet
  facet normal -1 0 0
    outer loop
      vertex 126 20 0
      vertex 126 2 4
      vertex 126 20 2
    endloop
  endfacet
  facet normal -1 0 0
    outer loop
      vertex 126 0 0
      vertex 126 2 4
      vertex 126 20 0
    endloop
  endfacet
  facet normal -1 -0 0
    outer loop
      vertex 126 2 4
      vertex 126 0 0
      vertex 126 0 4
    endloop
  endfacet
  facet normal -1 0 0
    outer loop
      vertex 126 20 2
      vertex 126 22 8
      vertex 126 22 2
    endloop
  endfacet
  facet normal -1 0 0
    outer loop
      vertex 126 2 8
      vertex 126 20 2
      vertex 126 2 4
    endloop
  endfacet
  facet normal -1 0 0
    outer loop
      vertex 126 20 2
      vertex 126 2 8
      vertex 126 22 8
    endloop
  endfacet
  facet normal 0 -1 0
    outer loop
      vertex 56 22 2
      vertex 126 22 8
      vertex 56 22 8
    endloop
  endfacet
  facet normal 0 -1 -0
    outer loop
      vertex 126 22 8
      vertex 56 22 2
      vertex 126 22 2
    endloop
  endfacet
  facet normal 0 0 1
    outer loop
      vertex 56 36 2
      vertex 25 18 2
      vertex 56 22 2
    endloop
  endfacet
  facet normal -0 0 1
    outer loop
      vertex 4 36 2
      vertex 25 18 2
      vertex 56 36 2
    endloop
  endfacet
  facet normal 0 0 1
    outer loop
      vertex 4 4 2
      vertex 10 18 2
      vertex 4 36 2
    endloop
  endfacet
  facet normal 0 0 1
    outer loop
      vertex 25 18 2
      vertex 4 36 2
      vertex 10 18 2
    endloop
  endfacet
  facet normal 0 0 1
    outer loop
      vertex 126 22 2
      vertex 106 20 2
      vertex 126 20 2
    endloop
  endfacet
  facet normal -0 0 1
    outer loop
      vertex 56 22 2
      vertex 106 20 2
      vertex 126 22 2
    endloop
  endfacet
  facet normal 0 0 1
    outer loop
      vertex 56 22 2
      vertex 106 4 2
      vertex 106 20 2
    endloop
  endfacet
  facet normal 0 0 1
    outer loop
      vertex 25 13 2
      vertex 56 22 2
      vertex 25 18 2
    endloop
  endfacet
  facet normal 0 0 1
    outer loop
      vertex 56 22 2
      vertex 25 13 2
      vertex 106 4 2
    endloop
  endfacet
  facet normal 0 0 1
    outer loop
      vertex 4 4 2
      vertex 25 13 2
      vertex 10 13 2
    endloop
  endfacet
  facet normal 0 0 1
    outer loop
      vertex 25 13 2
      vertex 4 4 2
      vertex 106 4 2
    endloop
  endfacet
  facet normal 0 0 1
    outer loop
      vertex 10 18 2
      vertex 4 4 2
      vertex 10 13 2
    endloop
  endfacet
  facet normal 0 1 -0
    outer loop
      vertex 106 4 2
      vertex 4 4 8
      vertex 106 4 8
    endloop
  endfacet
  facet normal 0 1 0
    outer loop
      vertex 4 4 8
      vertex 106 4 2
      vertex 4 4 2
    endloop
  endfacet
  facet normal -1 0 0
    outer loop
      vertex 56 22 2
      vertex 56 36 8
      vertex 56 36 2
    endloop
  endfacet
  facet normal -1 -0 0
    outer loop
      vertex 56 36 8
      vertex 56 22 2
      vertex 56 22 8
    endloop
  endfacet
  facet normal 0 -1 0
    outer loop
      vertex 4 36 8
      vertex 25 36 4
      vertex 25 36 8
    endloop
  endfacet
  facet normal 0 -1 -0
    outer loop
      vertex 25 36 4
      vertex 4 36 2
      vertex 35 36 4
    endloop
  endfacet
  facet normal 0 -1 0
    outer loop
      vertex 4 36 2
      vertex 25 36 4
      vertex 4 36 8
    endloop
  endfacet
  facet normal 0 -1 0
    outer loop
      vertex 35 36 4
      vertex 56 36 8
      vertex 35 36 8
    endloop
  endfacet
  facet normal 0 -1 0
    outer loop
      vertex 35 36 4
      vertex 56 36 2
      vertex 56 36 8
    endloop
  endfacet
  facet normal 0 -1 0
    outer loop
      vertex 56 36 2
      vertex 35 36 4
      vertex 4 36 2
    endloop
  endfacet
  facet normal -1 0 0
    outer loop
      vertex 0 0 0
      vertex 0 40 4
      vertex 0 40 0
    endloop
  endfacet
  facet normal -1 -0 0
    outer loop
      vertex 0 40 4
      vertex 0 0 0
      vertex 0 0 4
    endloop
  endfacet
  facet normal 0 0 1
    outer loop
      vertex 60 40 4
      vertex 58 38 4
      vertex 60 26 4
    endloop
  endfacet
  facet normal 0 0 1
    outer loop
      vertex 60 40 4
      vertex 35 38 4
      vertex 58 38 4
    endloop
  endfacet
  facet normal 0 0 1
    outer loop
      vertex 60 40 4
      vertex 25 38 4
      vertex 35 38 4
    endloop
  endfacet
  facet normal -0 0 1
    outer loop
      vertex 0 40 4
      vertex 25 38 4
      vertex 60 40 4
    endloop
  endfacet
  facet normal 0 0 1
    outer loop
      vertex 0 40 4
      vertex 2 25 4
      vertex 2 38 4
    endloop
  endfacet
  facet normal 0 0 1
    outer loop
      vertex 0 0 4
      vertex 2 25 4
      vertex 0 40 4
    endloop
  endfacet
  facet normal 0 0 1
    outer loop
      vertex 2 25 4
      vertex 0 0 4
      vertex 2 10 4
    endloop
  endfacet
  facet normal 0 0 1
    outer loop
      vertex 25 38 4
      vertex 0 40 4
      vertex 2 38 4
    endloop
  endfacet
  facet normal 0 0 1
    outer loop
      vertex 130 26 4
      vertex 128 24 4
      vertex 130 0 4
    endloop
  endfacet
  facet normal -0 0 1
    outer loop
      vertex 60 26 4
      vertex 128 24 4
      vertex 130 26 4
    endloop
  endfacet
  facet normal 0 0 1
    outer loop
      vertex 60 26 4
      vertex 58 24 4
      vertex 128 24 4
    endloop
  endfacet
  facet normal 0 0 1
    outer loop
      vertex 58 24 4
      vertex 60 26 4
      vertex 58 38 4
    endloop
  endfacet
  facet normal -0 0 1
    outer loop
      vertex 128 2 4
      vertex 130 0 4
      vertex 128 24 4
    endloop
  endfacet
  facet normal 0 0 1
    outer loop
      vertex 126 0 4
      vertex 128 2 4
      vertex 126 2 4
    endloop
  endfacet
  facet normal 0 0 1
    outer loop
      vertex 128 2 4
      vertex 126 0 4
      vertex 130 0 4
    endloop
  endfacet
  facet normal -0 0 1
    outer loop
      vertex 2 2 4
      vertex 106 0 4
      vertex 106 2 4
    endloop
  endfacet
  facet normal 0 0 1
    outer loop
      vertex 2 2 4
      vertex 0 0 4
      vertex 106 0 4
    endloop
  endfacet
  facet normal 0 0 1
    outer loop
      vertex 2 10 4
      vertex 0 0 4
      vertex 2 2 4
    endloop
  endfacet
  facet normal 1 -0 0
    outer loop
      vertex 130 0 4
      vertex 130 26 0
      vertex 130 26 4
    endloop
  endfacet
  facet normal 1 0 0
    outer loop
      vertex 130 26 0
      vertex 130 0 4
      vertex 130 0 0
    endloop
  endfacet
  facet normal 0 1 -0
    outer loop
      vertex 130 26 0
      vertex 60 26 4
      vertex 130 26 4
    endloop
  endfacet
  facet normal 0 1 0
    outer loop
      vertex 60 26 4
      vertex 130 26 0
      vertex 60 26 0
    endloop
  endfacet
  facet normal 0 0 -1
    outer loop
      vertex 106 0 0
      vertex 60 26 0
      vertex 106 20 0
    endloop
  endfacet
  facet normal 0 0 -1
    outer loop
      vertex 25 18 0
      vertex 60 26 0
      vertex 25 13 0
    endloop
  endfacet
  facet normal 0 0 -1
    outer loop
      vertex 106 0 0
      vertex 25 13 0
      vertex 60 26 0
    endloop
  endfacet
  facet normal 0 0 -1
    outer loop
      vertex 0 0 0
      vertex 25 13 0
      vertex 106 0 0
    endloop
  endfacet
  facet normal -0 0 -1
    outer loop
      vertex 10 13 0
      vertex 0 0 0
      vertex 10 18 0
    endloop
  endfacet
  facet normal -0 0 -1
    outer loop
      vertex 25 13 0
      vertex 0 0 0
      vertex 10 13 0
    endloop
  endfacet
  facet normal 0 0 -1
    outer loop
      vertex 126 20 0
      vertex 130 0 0
      vertex 126 0 0
    endloop
  endfacet
  facet normal 0 0 -1
    outer loop
      vertex 130 0 0
      vertex 126 20 0
      vertex 130 26 0
    endloop
  endfacet
  facet normal 0 0 -1
    outer loop
      vertex 106 20 0
      vertex 130 26 0
      vertex 126 20 0
    endloop
  endfacet
  facet normal -0 0 -1
    outer loop
      vertex 130 26 0
      vertex 106 20 0
      vertex 60 26 0
    endloop
  endfacet
  facet normal -0 0 -1
    outer loop
      vertex 60 26 0
      vertex 25 18 0
      vertex 60 40 0
    endloop
  endfacet
  facet normal 0 0 -1
    outer loop
      vertex 0 40 0
      vertex 25 18 0
      vertex 10 18 0
    endloop
  endfacet
  facet normal 0 0 -1
    outer loop
      vertex 25 18 0
      vertex 0 40 0
      vertex 60 40 0
    endloop
  endfacet
  facet normal 0 0 -1
    outer loop
      vertex 0 40 0
      vertex 10 18 0
      vertex 0 0 0
    endloop
  endfacet
  facet normal 0 -1 0
    outer loop
      vertex 0 0 0
      vertex 106 0 4
      vertex 0 0 4
    endloop
  endfacet
  facet normal 0 -1 -0
    outer loop
      vertex 106 0 4
      vertex 0 0 0
      vertex 106 0 0
    endloop
  endfacet
  facet normal 0 -1 0
    outer loop
      vertex 126 0 0
      vertex 130 0 4
      vertex 126 0 4
    endloop
  endfacet
  facet normal 0 -1 -0
    outer loop
      vertex 130 0 4
      vertex 126 0 0
      vertex 130 0 0
    endloop
  endfacet
  facet normal 1 -0 0
    outer loop
      vertex 60 26 4
      vertex 60 40 0
      vertex 60 40 4
    endloop
  endfacet
  facet normal 1 0 0
    outer loop
      vertex 60 40 0
      vertex 60 26 4
      vertex 60 26 0
    endloop
  endfacet
  facet normal 0 1 -0
    outer loop
      vertex 60 40 0
      vertex 0 40 4
      vertex 60 40 4
    endloop
  endfacet
  facet normal 0 1 0
    outer loop
      vertex 0 40 4
      vertex 60 40 0
      vertex 0 40 0
    endloop
  endfacet
  facet normal -1 0 0
    outer loop
      vertex 2 2 4
      vertex 2 10 8
      vertex 2 10 4
    endloop
  endfacet
  facet normal -1 -0 0
    outer loop
      vertex 2 10 8
      vertex 2 2 4
      vertex 2 2 8
    endloop
  endfacet
  facet normal -1 0 0
    outer loop
      vertex 2 25 4
      vertex 2 38 8
      vertex 2 38 4
    endloop
  endfacet
  facet normal -1 -0 0
    outer loop
      vertex 2 38 8
      vertex 2 25 4
      vertex 2 25 8
    endloop
  endfacet
  facet normal 1 -0 0
    outer loop
      vertex 128 2 8
      vertex 128 24 4
      vertex 128 24 8
    endloop
  endfacet
  facet normal 1 0 0
    outer loop
      vertex 128 24 4
      vertex 128 2 8
      vertex 128 2 4
    endloop
  endfacet
  facet normal 0 -1 0
    outer loop
      vertex 2 2 4
      vertex 106 2 8
      vertex 2 2 8
    endloop
  endfacet
  facet normal 0 -1 -0
    outer loop
      vertex 106 2 8
      vertex 2 2 4
      vertex 106 2 4
    endloop
  endfacet
  facet normal 0 -1 0
    outer loop
      vertex 126 2 4
      vertex 128 2 8
      vertex 126 2 8
    endloop
  endfacet
  facet normal 0 -1 -0
    outer loop
      vertex 128 2 8
      vertex 126 2 4
      vertex 128 2 4
    endloop
  endfacet
  facet normal 0 1 -0
    outer loop
      vertex 128 24 4
      vertex 58 24 8
      vertex 128 24 8
    endloop
  endfacet
  facet normal 0 1 0
    outer loop
      vertex 58 24 8
      vertex 128 24 4
      vertex 58 24 4
    endloop
  endfacet
  facet normal 1 -0 0
    outer loop
      vertex 58 24 8
      vertex 58 38 4
      vertex 58 38 8
    endloop
  endfacet
  facet normal 1 0 0
    outer loop
      vertex 58 38 4
      vertex 58 24 8
      vertex 58 24 4
    endloop
  endfacet
  facet normal 0 1 -0
    outer loop
      vertex 58 38 4
      vertex 35 38 8
      vertex 58 38 8
    endloop
  endfacet
  facet normal 0 1 0
    outer loop
      vertex 35 38 8
      vertex 58 38 4
      vertex 35 38 4
    endloop
  endfacet
  facet normal 0 1 -0
    outer loop
      vertex 25 38 4
      vertex 2 38 8
      vertex 25 38 8
    endloop
  endfacet
  facet normal 0 1 0
    outer loop
      vertex 2 38 8
      vertex 25 38 4
      vertex 2 38 4
    endloop
  endfacet
  facet normal 1 0 0
    outer loop
      vertex 106 2 4
      vertex 106 4 8
      vertex 106 2 8
    endloop
  endfacet
  facet normal 1 -0 0
    outer loop
      vertex 106 4 2
      vertex 106 20 0
      vertex 106 20 2
    endloop
  endfacet
  facet normal 1 0 0
    outer loop
      vertex 106 4 8
      vertex 106 2 4
      vertex 106 4 2
    endloop
  endfacet
  facet normal 1 0 0
    outer loop
      vertex 106 0 0
      vertex 106 2 4
      vertex 106 0 4
    endloop
  endfacet
  facet normal 1 0 0
    outer loop
      vertex 106 4 2
      vertex 106 0 0
      vertex 106 20 0
    endloop
  endfacet
  facet normal 1 0 0
    outer loop
      vertex 106 2 4
      vertex 106 0 0
      vertex 106 4 2
    endloop
  endfacet
  facet normal 0 -1 0
    outer loop
      vertex 106 20 0
      vertex 126 20 2
      vertex 106 20 2
    endloop
  endfacet
  facet normal 0 -1 -0
    outer loop
      vertex 126 20 2
      vertex 106 20 0
      vertex 126 20 0
    endloop
  endfacet
  facet normal -0 0 1
    outer loop
      vertex 2 25 4
      vertex 4 10 4
      vertex 4 25 4
    endloop
  endfacet
  facet normal 0 0 1
    outer loop
      vertex 4 10 4
      vertex 2 25 4
      vertex 2 10 4
    endloop
  endfacet
  facet normal 0 1 -0
    outer loop
      vertex 4 10 4
      vertex 2 10 8
      vertex 4 10 8
    endloop
  endfacet
  facet normal 0 1 0
    outer loop
      vertex 2 10 8
      vertex 4 10 4
      vertex 2 10 4
    endloop
  endfacet
  facet normal 0 -1 0
    outer loop
      vertex 2 25 4
      vertex 4 25 8
      vertex 2 25 8
    endloop
  endfacet
  facet normal 0 -1 -0
    outer loop
      vertex 4 25 8
      vertex 2 25 4
      vertex 4 25 4
    endloop
  endfacet
  facet normal 1 -0 0
    outer loop
      vertex 25 36 8
      vertex 25 38 4
      vertex 25 38 8
    endloop
  endfacet
  facet normal 1 0 0
    outer loop
      vertex 25 38 4
      vertex 25 36 8
      vertex 25 36 4
    endloop
  endfacet
  facet normal -1 0 0
    outer loop
      vertex 35 36 4
      vertex 35 38 8
      vertex 35 38 4
    endloop
  endfacet
  facet normal -1 -0 0
    outer loop
      vertex 35 38 8
      vertex 35 36 4
      vertex 35 36 8
    endloop
  endfacet
  facet normal -0 0 1
    outer loop
      vertex 25 38 4
      vertex 35 36 4
      vertex 35 38 4
    endloop
  endfacet
  facet normal 0 0 1
    outer loop
      vertex 35 36 4
      vertex 25 38 4
      vertex 25 36 4
    endloop
  endfacet
  facet normal 1 -0 0
    outer loop
      vertex 10 13 2
      vertex 10 18 0
      vertex 10 18 2
    endloop
  endfacet
  facet normal 1 0 0
    outer loop
      vertex 10 18 0
      vertex 10 13 2
      vertex 10 13 0
    endloop
  endfacet
  facet normal -1 0 0
    outer loop
      vertex 25 13 0
      vertex 25 18 2
      vertex 25 18 0
    endloop
  endfacet
  facet normal -1 -0 0
    outer loop
      vertex 25 18 2
      vertex 25 13 0
      vertex 25 13 2
    endloop
  endfacet
  facet normal 0 1 -0
    outer loop
      vertex 25 13 0
      vertex 10 13 2
      vertex 25 13 2
    endloop
  endfacet
  facet normal 0 1 0
    outer loop
      vertex 10 13 2
      vertex 25 13 0
      vertex 10 13 0
    endloop
  endfacet
  facet normal 0 -1 0
    outer loop
      vertex 10 18 0
      vertex 25 18 2
      vertex 10 18 2
    endloop
  endfacet
  facet normal 0 -1 -0
    outer loop
      vertex 25 18 2
      vertex 10 18 0
      vertex 25 18 0
    endloop
  endfacet
endsolid OpenSCAD_Model
